# xmcd
#
# Track frame offsets:
#  182
#  14917
#  28867
#  44582
#  58232
#  71987
#  88680
#  99800
#  114705
#  130917
#  147142
#  160540
#
# Disc length: 2344 seconds
#
# Revision: 3
# Processed by: cddbd v1.5.1PL2 Copyright (c) Steve Scherf et al.
# Submitted via: Collectorz.com_Music_Collector 6.9
#
DISCID=ad09260c
DTITLE=Mark Wills - Mark Wills
DYEAR=1996
DGENRE=Country
TTITLE0=High Low And In Between
TTITLE1=Jacob's Ladder
TTITLE2=What's Not To Love
TTITLE3=Any Fool Can Say Goodbye
TTITLE4=Ace Of Hearts
TTITLE5=Leavin' Comin' On
TTITLE6=Sudden Stop
TTITLE7=I Wonder If he Knows
TTITLE8=Places I've Never Been
TTITLE9=Squeeze Box
TTITLE10=What Love Is
TTITLE11=Look Where She Is Today
EXTD=
EXTT0=
EXTT1=
EXTT2=
EXTT3=
EXTT4=
EXTT5=
EXTT6=
EXTT7=
EXTT8=
EXTT9=
EXTT10=
EXTT11=
PLAYORDER=
